# xmcd
#
# Track frame offsets: 
#        150
#        22012
#        43019
#        59663
#        74604
#        96341
#        113157
#        128596
#        141449
#
# Disc length: 2352 seconds
#
# Revision: 0
# Processed by: cddbd v1.5.2PL0 Copyright (c) Steve Scherf et al.
# Submitted via: ExactAudioCopyFreeDBPlugin 1.0
#
DISCID=8a092e09
DTITLE=Session Americana - Session Americana Live
DYEAR=2011
DGENRE=Acoustic
TTITLE0=Water Never Runs Uphill
TTITLE1=Raglan Road
TTITLE2=Amelia Earhart's Last Flight
TTITLE3=The Shape I'm In
TTITLE4=Doreen
TTITLE5=Beertown
TTITLE6=(You Gotta) Fight For Your Right (To Party)
TTITLE7=I Can't Help It (If I'm Still In Love With You) 
TTITLE8=Ruby Are You Mad
EXTD=
EXTT0=
EXTT1=
EXTT2=
EXTT3=
EXTT4=
EXTT5=
EXTT6=
EXTT7=
EXTT8=
PLAYORDER=
